<svg id="Capa_1" enable-background="new 0 0 511.647 511.647" height="512" viewBox="0 0 511.647 511.647" width="512" xmlns="http://www.w3.org/2000/svg"><g><path d="m192.439 41.927-44.608-4.5c-31.197-3.142-59.732 17.586-66.379 48.227l-9.493 43.761-39.15 120.593-18.064 41.033c-12.633 28.696-1.733 62.243 25.354 78.034l38.686 22.551 102.592 74.5 33.443 29.859c11.688 10.436 26.345 15.656 41.002 15.661l38-282.823-38-186.912z" fill="#8a3cb8"/><path d="m496.915 291-18.042-40.983-39.209-120.574-9.504-43.814c-6.646-30.64-35.185-51.368-66.379-48.227l-44.552 4.494-63.404.016v469.735h.022c14.665 0 29.331-5.221 41.024-15.662l33.402-29.823 102.556-74.549 38.733-22.58c27.086-15.79 37.986-49.337 25.353-78.033z" fill="#6e3096"/><path d="m214.777 15.661-33.964 30.325c-20.129 17.973-26.221 46.586-15.158 71.2l17.041 37.913-30.898-27.927c-19.986-18.065-49.051-21.086-72.325-7.519l-39.387 22.96c-27.087 15.79-37.987 49.337-25.354 78.033l18.345 41.673c9.953 22.609 32.021 36.786 56.262 36.785 2.24 0 4.5-.121 6.769-.368l41.325-4.491-36.11 20.757c-23.356 13.425-35.211 40.134-29.5 66.461l9.665 44.554c6.2 28.582 31.447 48.542 60.132 48.542 2.066 0 4.151-.104 6.247-.315l45.302-4.57c26.85-2.709 48.596-22.277 54.113-48.692l8.498-40.689.043.205 29-169.675-29-210.823c-14.672-.005-29.346 5.215-41.046 15.661z" fill="#b460e7"/><path d="m471.547 142.571-39.336-22.93c-23.313-13.59-52.41-10.542-72.399 7.585l-30.792 27.923 17.013-38.017c11.004-24.589 4.896-53.166-15.199-71.108l-34.008-30.364c-11.688-10.435-26.345-15.655-41.003-15.66v380.498l8.539 40.551c5.551 26.361 27.289 45.89 54.093 48.594l45.36 4.576c2.099.211 4.18.315 6.249.315 28.683 0 53.931-19.962 60.131-48.542l9.653-44.497c5.721-26.372-6.169-53.101-29.587-66.511l-36.071-20.656 41.413 4.432c2.233.239 4.455.356 6.66.356 24.242 0 46.321-14.185 56.271-36.786l18.369-41.726c12.632-28.695 1.731-62.242-25.356-78.033z" fill="#8a3cb8"/><path d="m215.823 255.823c0 22.091 17.909 40 40 40l18-39-18-41c-22.091 0-40 17.909-40 40z" fill="#6e3096"/><path d="m255.823 215.823v80c22.091 0 40-17.909 40-40s-17.908-40-40-40z" fill="#56147d"/></g></svg>